<svg xmlns="http://www.w3.org/2000/svg" viewBox="0 0 128 128" width="128" height="128" role="img" aria-label="GiftWallet icon">
  <defs>
    <linearGradient id="gw" x1="0" y1="0" x2="1" y2="1">
      <stop offset="0" stop-color="#2563eb"/>
      <stop offset="1" stop-color="#1d4ed8"/>
    </linearGradient>
  </defs>
  <rect x="12" y="20" width="104" height="88" rx="20" fill="url(#gw)"/>
  <rect x="28" y="44" width="72" height="52" rx="12" fill="#ffffff" opacity="0.95"/>
  <path d="M48 44c-6 0-10-4-10-10s4-10 10-10c10 0 16 10 16 20h-6c0-8-4-12-10-12z" fill="#ffffff" opacity="0.95"/>
  <path d="M80 44c6 0 10-4 10-10s-4-10-10-10c-10 0-16 10-16 20h6c0-8 4-12 10-12z" fill="#ffffff" opacity="0.95"/>
  <rect x="61" y="44" width="6" height="52" fill="#2563eb" opacity="0.9"/>
  <rect x="28" y="62" width="72" height="6" fill="#2563eb" opacity="0.9"/>
</svg>

